<?xml version="1.0" encoding="UTF-8" standalone="no"?>
<svg xmlns:dc="http://purl.org/dc/elements/1.1/" xmlns:cc="http://web.resource.org/cc/" xmlns:rdf="http://www.w3.org/1999/02/22-rdf-syntax-ns#" xmlns:svg="http://www.w3.org/2000/svg" xmlns="http://www.w3.org/2000/svg" xmlns:sodipodi="http://inkscape.sourceforge.net/DTD/sodipodi-0.dtd" xmlns:inkscape="http://www.inkscape.org/namespaces/inkscape" width="822.04724pt" height="472.27997pt" id="svg2" sodipodi:version="0.32" inkscape:version="0.43" sodipodi:docname="tex_logo.svg" sodipodi:docbase="/home/alejo" version="1.0">
  <metadata id="metadata21">
    <rdf:RDF>
      <cc:Work rdf:about="">
        <dc:format>image/svg+xml</dc:format>
        <dc:type rdf:resource="http://purl.org/dc/dcmitype/StillImage"/>
      </cc:Work>
    </rdf:RDF>
  </metadata>
  <sodipodi:namedview inkscape:cy="417.84947" inkscape:cx="305.25953" inkscape:zoom="0.43415836" inkscape:window-height="767" inkscape:window-width="1214" inkscape:pageshadow="2" inkscape:pageopacity="0.0" borderopacity="1.0" bordercolor="#666666" pagecolor="#ffffff" id="base" inkscape:window-x="0" inkscape:window-y="0" inkscape:current-layer="svg2"/>
  <defs id="defs4">
    <marker id="ArrowEnd" viewBox="0 0 10 10" refX="0" refY="5" markerUnits="strokeWidth" markerWidth="4" markerHeight="3" orient="auto">
      <path d="M 0,0 L 10,5 L 0,10 L 0,0 z " id="path7"/>
    </marker>
    <marker id="ArrowStart" viewBox="0 0 10 10" refX="10" refY="5" markerUnits="strokeWidth" markerWidth="4" markerHeight="3" orient="auto">
      <path d="M 10,0 L 0,5 L 10,10 L 10,0 z " id="path10"/>
    </marker>
  </defs>
  <g id="g12" transform="matrix(24.42459,0,0,24.42459,4.606614,23.03307)">
    <path style="fill:#000000;stroke:none" d="M 14.718,0.0350342 L 0.417999,0.0350342 L 0,5.51202 L 0.445,5.51202 C 0.764999,1.41003 1.117,0.692017 4.957,0.692017 C 5.402,0.692017 6.125,0.692017 6.324,0.692017 C 6.797,0.766052 6.797,1.06702 6.797,1.63702 L 6.797,15.117 C 6.797,16.012 6.722,16.285 4.636,16.285 L 3.933,16.285 L 3.933,16.8831 C 5.121,16.86 6.359,16.836 7.574,16.836 C 8.785,16.836 10.027,16.86 11.214,16.8831 L 11.214,16.285 L 10.523,16.285 C 8.46799,16.285 8.394,16.012 8.394,15.117 L 8.394,1.63702 C 8.394,1.09003 8.394,0.79303 8.84,0.692017 C 9.035,0.692017 9.75401,0.692017 10.199,0.692017 C 13.988,0.692017 14.359,1.40601 14.679,5.51202 L 15.125,5.51202" id="path14"/>
    <path style="fill:#000000;stroke:none" d="M 27.144,16.02 L 26.699,16.02 C 26.156,19.692 25.836,21.688 21.48,21.688 L 18.043,21.688 C 17.054,21.688 17.007,21.563 17.007,20.711 L 17.007,13.789 L 19.343,13.789 C 21.679,13.789 21.902,14.645 21.902,16.735 L 22.3,16.735 L 22.3,10.293 L 21.902,10.293 C 21.902,12.348 21.679,13.188 19.343,13.188 L 17.007,13.188 L 17.007,7.05103 C 17.007,6.21503 17.054,6.09003 18.043,6.09003 L 21.429,6.09003 C 25.261,6.09003 25.707,7.61304 26.054,10.887 L 26.5,10.887 L 25.906,5.41003 L 13.367,5.41003 L 13.367,6.09003 C 15.121,6.09003 15.402,6.09003 15.402,7.203 L 15.402,20.567 C 15.402,21.6801 15.125,21.6801 13.367,21.6801 L 13.367,22.278 L 26.254,22.278" id="path16"/>
    <path style="fill:#000000;stroke:none" d="M 33.82,7.51202 L 37.484,2.21503 C 37.851,1.69501 38.597,0.625 40.629,0.598022 L 40.629,0 C 40.062,0.0469971 39.121,0.0469971 38.527,0.0469971 C 37.711,0.0469971 36.695,0.0469971 36.078,0 L 36.078,0.598022 C 36.871,0.671997 37.066,1.16803 37.066,1.56702 C 37.066,1.86304 36.945,2.06305 36.769,2.30902 L 33.5,7.05103 L 29.836,1.68805 C 29.664,1.41803 29.64,1.34003 29.64,1.26605 C 29.64,1.04303 29.91,0.621033 30.73,0.598022 L 30.73,0 C 29.937,0.0469971 28.726,0.0469971 27.91,0.0469971 C 27.269,0.0469971 26.031,0.0469971 25.433,0 L 25.433,0.598022 C 26.793,0.598022 27.238,0.649048 27.785,1.41803 L 32.562,8.43402 L 28.254,14.7271 C 27.191,16.2661 25.582,16.293 25.109,16.293 L 25.109,16.8911 C 25.675,16.8441 26.617,16.8441 27.211,16.8441 C 27.879,16.8441 29.043,16.8441 29.66,16.8911 L 29.66,16.293 C 28.894,16.2191 28.672,15.723 28.672,15.324 C 28.672,15.004 28.793,14.828 28.918,14.652 L 32.879,8.87103 L 37.187,15.203 C 37.382,15.4771 37.382,15.551 37.382,15.625 C 37.382,15.82 37.16,16.246 36.293,16.297 L 36.293,16.895 C 37.086,16.848 38.297,16.848 39.113,16.848 C 39.754,16.848 40.992,16.848 41.593,16.895 L 41.593,16.297 C 40.007,16.297 39.757,16.176 39.265,15.4771" id="path18"/>
  </g>
<script xmlns=""/></svg>