<?xml version="1.0" encoding="UTF-8" standalone="no"?>
<!-- Created with Inkscape (http://www.inkscape.org/) -->

<svg
   width="250.42316mm"
   height="250.42258mm"
   viewBox="0 0 250.42316 250.42258"
   version="1.1"
   id="svg1"
   xml:space="preserve"
   inkscape:version="1.4.2 (1:1.4.2+202505120737+ebf0e940d0)"
   sodipodi:docname="Logo.svg"
   xmlns:inkscape="http://www.inkscape.org/namespaces/inkscape"
   xmlns:sodipodi="http://sodipodi.sourceforge.net/DTD/sodipodi-0.dtd"
   xmlns="http://www.w3.org/2000/svg"
   xmlns:svg="http://www.w3.org/2000/svg"><sodipodi:namedview
     id="namedview1"
     pagecolor="#ffffff"
     bordercolor="#000000"
     borderopacity="0.25"
     inkscape:showpageshadow="2"
     inkscape:pageopacity="0.0"
     inkscape:pagecheckerboard="0"
     inkscape:deskcolor="#d1d1d1"
     inkscape:document-units="mm"
     inkscape:zoom="0.70614949"
     inkscape:cx="1108.8304"
     inkscape:cy="466.61508"
     inkscape:window-width="2560"
     inkscape:window-height="1371"
     inkscape:window-x="0"
     inkscape:window-y="0"
     inkscape:window-maximized="1"
     inkscape:current-layer="svg1" /><defs
     id="defs1"><marker
       id="ArrowEnd"
       viewBox="0 0 10 10"
       refX="0"
       refY="5"
       markerUnits="strokeWidth"
       markerWidth="4"
       markerHeight="3"
       orient="auto"><path
         d="M 0,0 10,5 0,10 Z"
         id="path7-3" /></marker><marker
       id="ArrowStart"
       viewBox="0 0 10 10"
       refX="10"
       refY="5"
       markerUnits="strokeWidth"
       markerWidth="4"
       markerHeight="3"
       orient="auto"><path
         d="M 10,0 0,5 10,10 Z"
         id="path10" /></marker></defs><g
     inkscape:label="Lua-Logo"
     inkscape:groupmode="layer"
     id="layer1"
     transform="translate(51.921997,-27.98246)"><g
       id="g7"
       transform="matrix(0.26458333,0,0,0.26458333,-51.990914,27.912772)">
	<path
   fill="#000080"
   d="m 835.5,473.6 c 0,-199.8 -162.2,-362 -362,-362 -199.8,0 -362,162.2 -362,362 0,199.8 162.2,362 362,362 199.8,0 362,-162.2 362,-362"
   id="path1" />
	<path
   fill="#ffffff"
   d="m 740.82905,302.35804 c 0,-58.5 -47.5,-106 -106,-106 -58.5,0 -106,47.5 -106,106 0,58.5 47.5,106 106,106 58.5,0 106,-47.5 106,-106"
   id="path2" />
	
	<g
   id="g6"
   inkscape:label="Lua"
   style="display:inline"
   transform="matrix(0.5488921,0,0,0.5488921,102.76238,-4.4817949)">
		<path
   fill="#ffffff"
   d="m 258.1,627.8 h 117.3 v 26.7 H 227.8 V 417 h 30.3 z"
   id="path4"
   inkscape:label="L" />
		<path
   fill="#ffffff"
   d="m 515.5,654.5 v -23.8 c -16,22.5 -31.9,31.3 -57,31.3 -33.2,0 -54.4,-18.2 -54.4,-46.6 V 483.8 h 27 v 120.9 c 0,20.5 13.7,33.6 35.2,33.6 28.3,0 46.6,-22.8 46.6,-57.7 v -96.8 h 27 v 170.7 z"
   id="path5"
   inkscape:label="u" />
		<path
   fill="#ffffff"
   d="m 738.4,659.1 c -8.8,2.3 -13,2.9 -18.6,2.9 -17.6,0 -26.1,-7.8 -28,-25.1 -19.2,17.6 -36.5,25.1 -58,25.1 -34.5,0 -56,-19.5 -56,-50.5 0,-22.2 10.1,-37.5 30,-45.6 10.4,-4.2 16.3,-5.5 54.7,-10.4 21.5,-2.6 28.3,-7.5 28.3,-18.9 v -7.2 c 0,-16.3 -13.7,-25.4 -38.1,-25.4 -25.4,0 -37.8,9.4 -40.1,30.3 h -27.4 c 0.7,-16.9 3.9,-26.7 11.7,-35.5 11.4,-12.7 31.9,-19.9 56.7,-19.9 42,0 64.2,16.3 64.2,46.6 v 100.4 c 0,8.5 5.2,13.4 14.7,13.4 1.6,0 2.9,0 5.9,-0.7 z m -47.6,-89 c -9.1,4.2 -15,5.5 -43.7,9.4 -29,4.2 -41.1,13.4 -41.1,31.3 0,17.3 12.4,27.4 33.6,27.4 16,0 29.3,-5.2 40.4,-15.3 8.1,-7.5 10.8,-13 10.8,-22.2 z"
   id="path6"
   inkscape:label="a" />
	</g>
	<path
   fill="none"
   stroke="#808080"
   stroke-width="10.8612"
   stroke-miterlimit="10"
   stroke-dasharray="40.8475"
   d="m 890.6,261 c 33.5,65.8 51,138.6 51,212.5 0,258.4 -209.7,468.1 -468.1,468.1 C 215.1,941.6 5.4,731.9 5.4,473.5 5.4,215.1 215.1,5.4 473.5,5.4 c 83.1,0 164.6,22.1 236.2,63.9"
   id="path7" />
</g></g><g
     id="g12"
     transform="matrix(4.0210747,0,0,4.0210747,35.43903,110.22791)"
     inkscape:label="TeX-Logo"
     style="fill:#ffffff"><path
       style="fill:#ffffff;stroke:none"
       d="M 14.718,0.0350342 H 0.417999 L 0,5.51202 H 0.445 C 0.764999,1.41003 1.117,0.692017 4.957,0.692017 c 0.445,0 1.168,0 1.367,0 C 6.797,0.766052 6.797,1.06702 6.797,1.63702 V 15.117 c 0,0.895 -0.075,1.168 -2.161,1.168 H 3.933 v 0.5981 C 5.121,16.86 6.359,16.836 7.574,16.836 c 1.211,0 2.453,0.024 3.64,0.0471 V 16.285 h -0.691 c -2.05501,0 -2.129,-0.273 -2.129,-1.168 V 1.63702 c 0,-0.54699 0,-0.84399 0.446,-0.945003 0.195,0 0.91401,0 1.359,0 3.789,0 4.16,0.713993 4.48,4.820003 h 0.446"
       id="path14"
       inkscape:label="T" /><path
       style="fill:#ffffff;stroke:none"
       d="m 27.144,16.02 h -0.445 c -0.543,3.672 -0.863,5.668 -5.219,5.668 h -3.437 c -0.989,0 -1.036,-0.125 -1.036,-0.977 v -6.922 h 2.336 c 2.336,0 2.559,0.856 2.559,2.946 H 22.3 v -6.442 h -0.398 c 0,2.055 -0.223,2.895 -2.559,2.895 H 17.007 V 7.05103 c 0,-0.836 0.047,-0.961 1.036,-0.961 h 3.386 c 3.832,0 4.278,1.52301 4.625,4.79697 H 26.5 L 25.906,5.41003 H 13.367 v 0.68 c 1.754,0 2.035,0 2.035,1.11297 v 13.364 c 0,1.1131 -0.277,1.1131 -2.035,1.1131 v 0.5979 h 12.887"
       id="path16"
       inkscape:label="E" /><path
       style="fill:#ffffff;stroke:none"
       d="M 33.82,7.51202 37.484,2.21503 C 37.851,1.69501 38.597,0.625 40.629,0.598022 V 0 c -0.567,0.0469971 -1.508,0.0469971 -2.102,0.0469971 -0.816,0 -1.832,0 -2.449,-0.0469971 v 0.598022 c 0.793,0.073975 0.988,0.570008 0.988,0.968998 0,0.29602 -0.121,0.49603 -0.297,0.742 L 33.5,7.05103 29.836,1.68805 C 29.664,1.41803 29.64,1.34003 29.64,1.26605 c 0,-0.22302 0.27,-0.645017 1.09,-0.668028 V 0 c -0.793,0.0469971 -2.004,0.0469971 -2.82,0.0469971 -0.641,0 -1.879,0 -2.477,-0.0469971 v 0.598022 c 1.36,0 1.805,0.051026 2.352,0.820008 l 4.777,7.01599 -4.308,6.29308 c -1.063,1.539 -2.672,1.5659 -3.145,1.5659 v 0.5981 c 0.566,-0.047 1.508,-0.047 2.102,-0.047 0.668,0 1.832,0 2.449,0.047 V 16.293 c -0.766,-0.0739 -0.988,-0.57 -0.988,-0.969 0,-0.32 0.121,-0.496 0.246,-0.672 l 3.961,-5.78097 4.308,6.33197 c 0.195,0.2741 0.195,0.348 0.195,0.422 0,0.195 -0.222,0.621 -1.089,0.672 v 0.598 c 0.793,-0.047 2.004,-0.047 2.82,-0.047 0.641,0 1.879,0 2.48,0.047 v -0.598 c -1.586,0 -1.836,-0.121 -2.328,-0.8199"
       id="path18"
       inkscape:label="X" /></g><g
     id="g1"
     transform="matrix(1.7008711,0,0,1.7008711,187.46196,3.2568984)"
     inkscape:label="CAT"><path
       fill="#ffcc4d"
       d="M 35.734,19.929 C 35.375,16.66 35,15 34,13 34,13 37,4 35,0.3 34.326,-0.946 27.596,1.988 25,4 25,4 21,3.002 18,3.002 15,3.002 11,4 11,4 8.404,1.988 1.674,-0.946 1,0.3 -1,4 2,13 2,13 1,15 0.625,16.66 0.266,19.929 -0.129,23.513 0.657,26.37 1,27 c 0.39,0.716 2.367,3.025 5,5 4,3 10,4 12,4 2,0 8,-1 12,-4 2.633,-1.975 4.61,-4.284 5,-5 0.343,-0.63 1.129,-3.487 0.734,-7.071 z"
       id="path1-6" /><path
       fill="#e75a70"
       d="m 18,19.5 c 3,0 3,0.5 3,1.5 0,1 -1.5,3 -3,3 -1.5,0 -3,-2 -3,-3 0,-1 -10e-4,-1.5 3,-1.5 z"
       id="path2-7" /><path
       fill="#f18f26"
       d="M 2,3 C 2.447,1.658 7.64,4 8.64,5 8.64,5 4,8 3,11 3,11 1,6 2,3 Z m 32,0 c -0.447,-1.342 -5.64,1 -6.64,2 0,0 4.64,3 5.64,6 0,0 2,-5 1,-8 z"
       id="path3-5" /><path
       fill="#ffcc4d"
       d="M 4.934,5.603 C 4.934,4.189 11,7 10,8 9,9 8,9.603 7,10.603 c -1,1 -2.066,-4 -2.066,-5 z m 26.132,0 C 31.066,4.189 25,7 26,8 c 1,1 2,1.603 3,2.603 1,1 2.066,-4 2.066,-5 z"
       id="path4-3" /><path
       fill="#fee7b8"
       d="M 0.701,25 C 0.553,25 0.407,24.935 0.308,24.81 0.137,24.593 0.174,24.279 0.391,24.108 c 0.162,-0.127 4.02,-3.12 10.648,-2.605 0.275,0.02 0.481,0.261 0.46,0.536 -0.021,0.275 -0.257,0.501 -0.537,0.46 C 4.729,22.025 1.047,24.865 1.011,24.894 0.918,24.965 0.809,25 0.701,25 Z M 9.569,20.337 C 9.52,20.337 9.469,20.33 9.42,20.315 4.63,18.818 0.683,19.968 0.643,19.979 0.378,20.06 0.1,19.909 0.02,19.644 -0.059,19.379 0.091,19.101 0.355,19.022 0.528,18.97 4.641,17.775 9.717,19.36 c 0.264,0.083 0.411,0.363 0.328,0.627 -0.066,0.213 -0.263,0.35 -0.476,0.35 z M 35.299,25 c 0.148,0 0.294,-0.065 0.393,-0.19 0.171,-0.217 0.134,-0.531 -0.083,-0.702 -0.162,-0.127 -4.02,-3.12 -10.648,-2.605 -0.275,0.02 -0.481,0.261 -0.46,0.536 0.021,0.275 0.257,0.501 0.537,0.46 6.233,-0.474 9.915,2.366 9.951,2.395 0.093,0.071 0.202,0.106 0.31,0.106 z m -8.868,-4.663 c 0.049,0 0.1,-0.007 0.149,-0.022 4.79,-1.497 8.737,-0.347 8.777,-0.336 0.265,0.081 0.543,-0.07 0.623,-0.335 0.079,-0.265 -0.071,-0.543 -0.335,-0.622 -0.173,-0.052 -4.286,-1.247 -9.362,0.338 -0.264,0.083 -0.411,0.363 -0.328,0.627 0.065,0.213 0.263,0.35 0.476,0.35 z"
       id="path5-5" /><path
       fill="#292f33"
       d="M 28.023,24.191 C 27.046,24.383 23,26 18,26 13,26 8.954,24.383 7.977,24.191 7,24 6.885,25.264 7.442,27.132 8,29 11,33 18,33 25,33 28,29 28.558,27.132 29.115,25.264 29,24 28.023,24.191 Z"
       id="path6-6" /><path
       fill="#f5f8fa"
       d="m 8,25 c 0,0 5,2 10,2 5,0 10,-2 10,-2 0,0 -0.5,3 -1.5,3 -1,0 -1.5,-1 -1.5,-1 0,0 -4,2 -7,2 -3,0 -7,-2 -7,-2 0,0 -0.5,1 -1.5,1 C 8.5,28 8,25 8,25 Z"
       id="path7-2" /><path
       d="M 28.416,17.723 C 28.355,17.632 26.901,15.5 24,15.5 c -2.9,0 -4.355,2.132 -4.416,2.223 -0.135,0.202 -0.104,0.47 0.071,0.638 0.174,0.167 0.446,0.185 0.643,0.042 C 20.31,18.393 21.56,17.5 24,17.5 c 2.426,0 3.674,0.881 3.702,0.901 0.089,0.066 0.194,0.099 0.298,0.099 0.124,0 0.248,-0.046 0.344,-0.137 0.177,-0.167 0.207,-0.438 0.072,-0.64 z m -12,0 C 16.355,17.632 14.901,15.5 12,15.5 9.1,15.5 7.645,17.632 7.584,17.723 7.45,17.925 7.48,18.193 7.655,18.361 7.83,18.528 8.102,18.546 8.297,18.403 8.31,18.393 9.559,17.5 12,17.5 c 2.426,0 3.674,0.881 3.702,0.901 0.089,0.066 0.194,0.099 0.298,0.099 0.124,0 0.248,-0.046 0.344,-0.137 0.177,-0.167 0.207,-0.438 0.072,-0.64 z M 31.001,16 C 30.696,16 30.397,15.862 30.2,15.6 27.559,12.079 24.139,12.001 23.994,12 23.444,11.994 23,11.544 23.003,10.995 23.006,10.444 23.45,10 24,10 c 0.184,0 4.537,0.05 7.8,4.4 0.332,0.442 0.242,1.069 -0.2,1.4 -0.18,0.135 -0.39,0.2 -0.599,0.2 z M 4.999,16 C 4.791,16 4.58,15.935 4.4,15.8 3.958,15.469 3.869,14.842 4.2,14.4 7.462,10.05 11.816,10 12,10 c 0.552,0 1,0.448 1,1 0,0.551 -0.445,0.998 -0.996,1 -0.156,0.002 -3.569,0.086 -6.205,3.6 -0.195,0.262 -0.496,0.4 -0.8,0.4 z"
       fill="#292f33"
       id="path8" /></g></svg>
